<svg width="375" height="10" viewBox="0 0 375 10" fill="none" xmlns="http://www.w3.org/2000/svg">
<path d="M0 1L7.97872 9L15.9574 1L23.9362 9L31.9149 1L39.8936 9L47.8723 1L55.8511 9L63.8298 1L71.8085 9L79.7872 1L87.766 9L95.7447 1L103.723 9L111.702 1L119.681 9L127.66 1L135.638 9L143.617 1L151.596 9L159.574 1L167.553 9L175.532 1L183.511 9L191.489 1L199.468 9L207.447 1L215.426 9L223.404 1L231.383 9L239.362 1L247.34 9L255.319 1L263.298 9L271.277 1L279.255 9L287.234 1L295.213 9L303.191 1L311.17 9L319.149 1L327.128 9L335.106 1L343.085 9L351.064 1L359.043 9L367.021 1L375 9" stroke="#002733" stroke-opacity="0.24"/>
</svg>
